<svg width="180" height="288" viewBox="0 0 180 288" fill="none" xmlns="http://www.w3.org/2000/svg">
<line x1="89" y1="228" x2="89" y2="278" stroke="#F4D62F" stroke-width="20" stroke-linecap="round"/>
<path d="M168.53 170.528C172.259 161.526 174.408 151.959 174.894 142.248C175.011 139.904 173.097 138 170.75 138V138C168.403 138 166.512 139.904 166.382 142.248C165.904 150.842 163.978 159.304 160.677 167.275C156.832 176.557 151.197 184.99 144.094 192.094C136.99 199.197 128.557 204.832 119.275 208.677C109.994 212.521 100.046 214.5 90 214.5C79.9539 214.5 70.0061 212.521 60.7247 208.677C51.4433 204.832 43.01 199.197 35.9063 192.094C28.8026 184.99 23.1677 176.557 19.3232 167.275C16.0215 159.304 14.096 150.842 13.618 142.248C13.4877 139.904 11.5972 138 9.25 138V138C6.90279 138 4.98892 139.904 5.10623 142.248C5.59217 151.959 7.74134 161.526 11.4702 170.528C15.7419 180.841 22.0029 190.211 29.8959 198.104C37.7889 205.997 47.1592 212.258 57.4719 216.53C67.7846 220.801 78.8376 223 90 223C101.162 223 112.215 220.801 122.528 216.53C132.841 212.258 142.211 205.997 150.104 198.104C157.997 190.211 164.258 180.841 168.53 170.528Z" stroke="#FF5765" stroke-width="10" stroke-linejoin="round"/>
<rect x="37" width="106" height="200" rx="53" fill="#876DDF"/>
</svg>
